<svg width="106" height="24" viewBox="0 0 106 24" fill="none" xmlns="http://www.w3.org/2000/svg">
<path fill-rule="evenodd" clip-rule="evenodd" d="M53.248 23.6444H63.3274L74.3731 12.582H64.2938L53.248 23.6444Z" fill="#F39200"/>
<path fill-rule="evenodd" clip-rule="evenodd" d="M76.4633 0.393555L72.0918 4.77163L75.4893 11.4559L86.535 0.393555H76.4633Z" fill="#F39200"/>
<path fill-rule="evenodd" clip-rule="evenodd" d="M48.1668 0.393555H56.6003L52.9158 23.645H44.4824L48.1668 0.393555Z" fill="#005CA9"/>
<path fill-rule="evenodd" clip-rule="evenodd" d="M33.1643 15.2367L32.7566 10.9796C32.6585 9.97389 32.7038 8.46161 32.7189 7.38032H32.3716L29.4875 15.2367H33.1039H33.1643ZM26.1881 23.645H17.2715L29.0118 0.393555H38.3361L42.9567 23.645H34.0175L33.7004 20.7414H27.3281L26.1881 23.645Z" fill="#005CA9"/>
<path fill-rule="evenodd" clip-rule="evenodd" d="M59.7852 0.393555H69.8645L75.4893 11.4559H65.4175L59.7852 0.393555Z" fill="#005CA9"/>
<path fill-rule="evenodd" clip-rule="evenodd" d="M96.2149 15.2367L95.7996 10.9796C95.7015 9.97389 95.7468 8.46161 95.7619 7.38032H95.4221L92.5304 15.2367H96.1469H96.2149ZM89.2311 23.645H80.3145L92.0548 0.393555H101.379L106 23.645H97.0605L96.7434 20.7414H90.3711L89.2311 23.645Z" fill="#005CA9"/>
<path fill-rule="evenodd" clip-rule="evenodd" d="M18.5704 9.80718C17.4228 8.55198 15.8901 7.4707 13.9875 7.4707C11.4658 7.4707 9.08752 9.47448 8.67982 12C8.28721 14.5633 10.1596 16.5293 12.6813 16.5293C14.6217 16.5293 16.2903 15.7051 17.8607 14.3743L16.2299 23.0851C14.7727 23.7202 11.5941 24 10.0766 24C3.46273 24 -0.893646 18.8507 0.15581 12.2268C1.22037 5.42911 7.41141 0 14.214 0C16.1166 0 18.0419 0.355388 19.7255 0.952741L18.5704 9.80718Z" fill="#005CA9"/>
<path fill-rule="evenodd" clip-rule="evenodd" d="M67.6914 19.2663L74.3732 12.582L79.998 23.6444H69.9187L67.6914 19.2663Z" fill="#005CA9"/>
</svg>
