<svg width="16" height="16" viewBox="0 0 16 16" fill="none" xmlns="http://www.w3.org/2000/svg">
<path d="M4.66667 10.6668H9.33333V12.0002H4.66667V10.6668ZM4.66667 8.00016H11.3333V9.3335H4.66667V8.00016ZM4.66667 5.3335H11.3333V6.66683H4.66667V5.3335ZM12.6667 2.66683H9.88C9.6 1.8935 8.86667 1.3335 8 1.3335C7.13333 1.3335 6.4 1.8935 6.12 2.66683H3.33333C3.24 2.66683 3.15333 2.6735 3.06667 2.6935C2.80667 2.74683 2.57333 2.88016 2.39333 3.06016C2.27333 3.18016 2.17333 3.32683 2.10667 3.48683C2.04 3.64016 2 3.8135 2 4.00016V13.3335C2 13.5135 2.04 13.6935 2.10667 13.8535C2.17333 14.0135 2.27333 14.1535 2.39333 14.2802C2.57333 14.4602 2.80667 14.5935 3.06667 14.6468C3.15333 14.6602 3.24 14.6668 3.33333 14.6668H12.6667C13.4 14.6668 14 14.0668 14 13.3335V4.00016C14 3.26683 13.4 2.66683 12.6667 2.66683ZM8 2.50016C8.27333 2.50016 8.5 2.72683 8.5 3.00016C8.5 3.2735 8.27333 3.50016 8 3.50016C7.72667 3.50016 7.5 3.2735 7.5 3.00016C7.5 2.72683 7.72667 2.50016 8 2.50016ZM12.6667 13.3335H3.33333V4.00016H12.6667V13.3335Z" fill="#00437A"/>
</svg>
